<svg xmlns="http://www.w3.org/2000/svg" width="585.03" height="302.281" viewBox="0 0 585.03 302.281">
  <g id="Grupo_5" data-name="Grupo 5" transform="translate(0 0)">
    <ellipse id="Elipse_2" data-name="Elipse 2" cx="292.515" cy="8.182" rx="292.515" ry="8.182" transform="translate(0 253.821)" fill="#e6e6e6"/>
    <path id="Trazado_17" data-name="Trazado 17" d="M819.782,450.089c-.369.005-.739.01-1.113.01s-.744-.005-1.113-.01c-19.581-.445-33.773-12.68-30.161-25.516l8.809-31.314,2.226-7.923,39.465.673,2.4,7.751,9.442,30.51C853.733,437.176,839.541,449.643,819.782,450.089Z" transform="translate(-371.378 -276.745)" fill="#3f3d56"/>
    <path id="Trazado_18" data-name="Trazado 18" d="M845.165,393.759a43.561,43.561,0,0,1-44.09-.5l2.226-7.923,39.466.673Z" transform="translate(-376.249 -276.745)" opacity="0.2"/>
    <path id="Trazado_19" data-name="Trazado 19" d="M865.209,413.161c1.7-6.354,7.308-15.52,23.022-26.571,27.405-19.276,11.057-33.73,10.348-34.335-1.486-1.27-1.267-2.7.51-3.184a7.385,7.385,0,0,1,5.945,1.384c.887.734,21.359,18.216-9.566,39.964C867.637,410,873.555,422.774,873.623,422.9c.746,1.367-.45,2.46-2.674,2.446s-4.632-1.134-5.38-2.5C865.412,422.554,863.621,419.076,865.209,413.161Z" transform="translate(-397.958 -264.295)" fill="#3f3d56"/>
    <path id="Trazado_20" data-name="Trazado 20" d="M805.167,475.689a4.554,4.554,0,0,1-4.554-4.554V451.4a4.554,4.554,0,0,1,9.107,0v19.733a4.554,4.554,0,0,1-4.553,4.553Z" transform="translate(-376.091 -297.782)" fill="#3f3d56"/>
    <path id="Trazado_21" data-name="Trazado 21" d="M799.768,411.841a4.554,4.554,0,0,1-6.04,2.234L775.8,405.827a4.554,4.554,0,1,1,3.807-8.274l17.926,8.248a4.554,4.554,0,0,1,2.234,6.04Z" transform="translate(-366.699 -280.781)" fill="#3f3d56"/>
    <path id="Trazado_22" data-name="Trazado 22" d="M856.612,411.841a4.554,4.554,0,0,0,6.04,2.233l17.926-8.248a4.554,4.554,0,0,0-3.807-8.274L858.845,405.8A4.554,4.554,0,0,0,856.612,411.841Z" transform="translate(-395.099 -280.781)" fill="#3f3d56"/>
    <path id="Trazado_23" data-name="Trazado 23" d="M860.53,475.689a4.554,4.554,0,0,0,4.554-4.554V451.4a4.554,4.554,0,0,0-9.107,0v19.733a4.554,4.554,0,0,0,4.554,4.553Z" transform="translate(-395.024 -297.782)" fill="#3f3d56"/>
    <path id="Trazado_24" data-name="Trazado 24" d="M849.853,277.563a4.478,4.478,0,0,0,.9-3.559l-2.478-14.58-2.478-14.58a4.549,4.549,0,0,0-7.387-2.74l-11.387,9.436-6.86,5.685a43.227,43.227,0,0,0-13.849-.209l-6.608-5.476L788.32,242.1a4.549,4.549,0,0,0-7.387,2.74l-2.478,14.58L775.976,274a4.5,4.5,0,0,0,.2,2.286,43.507,43.507,0,1,0,73.678,1.273Z" transform="translate(-365.316 -227.405)" fill="#3f3d56"/>
    <path id="Trazado_25" data-name="Trazado 25" d="M793.835,251.728a2.268,2.268,0,0,0-.791.144,2.229,2.229,0,0,0-1.437,1.734L788.6,271.286a2.252,2.252,0,0,0,3,2.489l16.815-6.238a2.252,2.252,0,0,0,.654-3.845h0l-13.809-11.443A2.232,2.232,0,0,0,793.835,251.728Z" transform="translate(-371.972 -231.055)" fill="#e6e6e6"/>
    <path id="Trazado_26" data-name="Trazado 26" d="M867.824,251.728a2.232,2.232,0,0,0-1.429.521l-13.809,11.443a2.252,2.252,0,0,0,.654,3.845l16.815,6.238a2.252,2.252,0,0,0,3-2.489l-3.005-17.681a2.23,2.23,0,0,0-1.437-1.734A2.268,2.268,0,0,0,867.824,251.728Z" transform="translate(-393.586 -231.055)" fill="#e6e6e6"/>
    <circle id="Elipse_3" data-name="Elipse 3" cx="6.072" cy="6.072" r="6.072" transform="translate(441.219 72.666)" fill="#e6e6e6"/>
    <ellipse id="Elipse_4" data-name="Elipse 4" cx="4.048" cy="1.518" rx="4.048" ry="1.518" transform="translate(443.243 74.183)" fill="#3f3d56"/>
    <path id="Trazado_27" data-name="Trazado 27" d="M675.14,125.04h5.566v6.831a2.783,2.783,0,0,1-2.783,2.783h0a2.783,2.783,0,0,1-2.783-2.783Z" transform="translate(-230.884 -42.761)" fill="#ff6584"/>
    <path id="Trazado_28" data-name="Trazado 28" d="M833.47,240.69c-.292.605-.575,1.217-.842,1.841a43.31,43.31,0,0,0-3.06,23.257c.57-.827,1.168-1.688,1.777-2.558A43.281,43.281,0,0,1,833.47,240.69Z" transform="translate(-385.841 -227.28)" fill="#3f3d56"/>
    <path id="Trazado_29" data-name="Trazado 29" d="M840.39,249.148c-.292.605-.575,1.217-.842,1.841a43.31,43.31,0,0,0-3.06,23.257c.57-.827,1.168-1.688,1.777-2.558A43.283,43.283,0,0,1,840.39,249.148Z" transform="translate(-388.207 -230.172)" fill="#3f3d56"/>
    <path id="Trazado_30" data-name="Trazado 30" d="M843.778,405.514l-.642-8.158-.641-8.158a2.517,2.517,0,0,0-3.935-1.877l-6.744,4.635-4.925,3.384a3.353,3.353,0,0,0-5.1,0l-4.925-3.384-6.744-4.635a2.517,2.517,0,0,0-3.935,1.877l-.641,8.158-.641,8.158a2.517,2.517,0,0,0,3.593,2.469l7.386-3.524,6.069-2.9a3.357,3.357,0,0,0,4.778,0l6.069,2.9,7.386,3.524a2.517,2.517,0,0,0,3.593-2.469Z" transform="translate(-377.556 -277.273)" fill="#31e0dc"/>
    <circle id="Elipse_5" data-name="Elipse 5" cx="1.518" cy="1.518" r="1.518" transform="translate(437.678 70.642)" fill="#e6e6e6"/>
    <circle id="Elipse_6" data-name="Elipse 6" cx="1.518" cy="1.518" r="1.518" transform="translate(453.869 70.642)" fill="#e6e6e6"/>
    <path id="Trazado_31" data-name="Trazado 31" d="M372.969,429.709c.369.005.739.01,1.113.01s.744-.005,1.113-.01c19.581-.445,33.773-12.68,30.161-25.516l-8.809-31.314-2.227-7.923-39.465.673-2.4,7.751-9.441,30.51C339.019,416.8,353.211,429.263,372.969,429.709Z" transform="translate(-219.37 -269.776)" fill="#3f3d56"/>
    <path id="Trazado_32" data-name="Trazado 32" d="M357.715,373.38a43.561,43.561,0,0,0,44.09-.5l-2.226-7.924-39.466.673Z" transform="translate(-224.629 -269.776)" opacity="0.2"/>
    <path id="Trazado_33" data-name="Trazado 33" d="M319.327,397.927c-4.26-5.013-13.246-10.9-32.177-14.164-33.018-5.7-24.426-25.755-24.045-26.6.8-1.784-.009-2.979-1.824-2.659a7.385,7.385,0,0,0-4.781,3.794c-.488,1.043-11.51,25.6,25.746,32.028,33.531,5.784,33.65,19.866,33.642,20.006-.089,1.554,1.46,2.031,3.463,1.066s3.7-3.007,3.793-4.561C323.162,406.5,323.293,402.593,319.327,397.927Z" transform="translate(-189.368 -266.182)" fill="#3f3d56"/>
    <path id="Trazado_34" data-name="Trazado 34" d="M415.894,455.309a4.554,4.554,0,0,0,4.554-4.554V431.022a4.554,4.554,0,0,0-9.107,0v19.733a4.554,4.554,0,0,0,4.554,4.554Z" transform="translate(-242.968 -290.812)" fill="#3f3d56"/>
    <path id="Trazado_35" data-name="Trazado 35" d="M411.976,391.462a4.554,4.554,0,0,0,6.04,2.234l17.926-8.248a4.554,4.554,0,0,0-3.807-8.274l-17.926,8.248A4.554,4.554,0,0,0,411.976,391.462Z" transform="translate(-243.042 -273.812)" fill="#3f3d56"/>
    <path id="Trazado_36" data-name="Trazado 36" d="M355.132,391.462a4.554,4.554,0,0,1-6.04,2.234l-17.926-8.248a4.554,4.554,0,0,1,3.807-8.274l17.926,8.248A4.554,4.554,0,0,1,355.132,391.462Z" transform="translate(-214.643 -273.812)" fill="#3f3d56"/>
    <path id="Trazado_37" data-name="Trazado 37" d="M360.531,455.309a4.554,4.554,0,0,1-4.554-4.554V431.022a4.554,4.554,0,0,1,9.107,0v19.733a4.554,4.554,0,0,1-4.554,4.554Z" transform="translate(-224.034 -290.812)" fill="#3f3d56"/>
    <path id="Trazado_38" data-name="Trazado 38" d="M404.39,255.911a4.5,4.5,0,0,0,.2-2.286l-2.478-14.58-2.478-14.58a4.549,4.549,0,0,0-7.387-2.74l-11.387,9.436-6.609,5.476a43.228,43.228,0,0,0-13.849.209l-6.86-5.685-11.387-9.436a4.549,4.549,0,0,0-7.387,2.74l-2.478,14.58-2.478,14.58a4.478,4.478,0,0,0,.9,3.559,43.519,43.519,0,1,0,73.678-1.273Z" transform="translate(-213.246 -220.436)" fill="#3f3d56"/>
    <path id="Trazado_39" data-name="Trazado 39" d="M419.451,231.869l-13.809,11.443h0a2.252,2.252,0,0,0,.654,3.845L423.11,253.4a2.252,2.252,0,0,0,3-2.489l-3.005-17.681a2.229,2.229,0,0,0-1.437-1.734,2.268,2.268,0,0,0-.791-.144A2.232,2.232,0,0,0,419.451,231.869Z" transform="translate(-240.74 -224.085)" fill="#e6e6e6"/>
    <path id="Trazado_40" data-name="Trazado 40" d="M346.1,231.491a2.229,2.229,0,0,0-1.437,1.734l-3.005,17.681a2.252,2.252,0,0,0,3,2.489l16.815-6.238a2.252,2.252,0,0,0,.654-3.845l-13.809-11.443a2.232,2.232,0,0,0-1.429-.521A2.268,2.268,0,0,0,346.1,231.491Z" transform="translate(-219.127 -224.085)" fill="#e6e6e6"/>
    <circle id="Elipse_7" data-name="Elipse 7" cx="6.072" cy="6.072" r="6.072" transform="translate(148.64 59.255)" fill="#e6e6e6"/>
    <ellipse id="Elipse_8" data-name="Elipse 8" cx="4.048" cy="1.518" rx="4.048" ry="1.518" transform="translate(150.664 60.773)" fill="#3f3d56"/>
    <path id="Trazado_41" data-name="Trazado 41" d="M2.783,0h0A2.783,2.783,0,0,1,5.566,2.783V9.613H0V2.783A2.783,2.783,0,0,1,2.783,0Z" transform="translate(157.747 78.482) rotate(180)" fill="#ff6584"/>
    <path id="Trazado_42" data-name="Trazado 42" d="M390.066,220.31c.292.605.575,1.217.842,1.841a43.31,43.31,0,0,1,3.06,23.257c-.57-.827-1.168-1.688-1.777-2.558A43.281,43.281,0,0,0,390.066,220.31Z" transform="translate(-235.692 -220.31)" fill="#3f3d56"/>
    <path id="Trazado_43" data-name="Trazado 43" d="M383.146,228.768c.292.605.575,1.217.842,1.841a43.309,43.309,0,0,1,3.06,23.257c-.57-.827-1.168-1.688-1.777-2.558a43.282,43.282,0,0,0-2.125-22.54Z" transform="translate(-233.326 -223.203)" fill="#3f3d56"/>
    <path id="Trazado_44" data-name="Trazado 44" d="M361.806,250.573l.642-8.158.642-8.158a2.517,2.517,0,0,1,3.935-1.877l6.744,4.635,4.925,3.384a3.353,3.353,0,0,1,5.1,0l4.925-3.384,6.744-4.635a2.517,2.517,0,0,1,3.935,1.877l.641,8.158.642,8.158a2.517,2.517,0,0,1-3.593,2.469l-7.386-3.524-6.069-2.9a3.357,3.357,0,0,1-4.778,0l-6.069,2.9-7.386,3.524a2.517,2.517,0,0,1-3.593-2.469Z" transform="translate(-226.025 -224.286)" fill="#31e0dc"/>
    <path id="Trazado_45" data-name="Trazado 45" d="M400.575,308.8c0,.838.68,0,1.518,0s1.518.838,1.518,0a1.518,1.518,0,1,0-3.036,0Z" transform="translate(-239.286 -250.054)" fill="#e6e6e6"/>
    <path id="Trazado_46" data-name="Trazado 46" d="M379.005,308.8c0,.838-.68,0-1.518,0s-1.518.838-1.518,0a1.518,1.518,0,0,1,3.036,0Z" transform="translate(-230.871 -250.054)" fill="#e6e6e6"/>
    <path id="Trazado_47" data-name="Trazado 47" d="M455.978,258.437v-9.649H407.736v97.088h48.242v-9.649H417.385v-77.79Z" transform="translate(-139.438 -85.081)" fill="#3f3d56"/>
    <path id="Trazado_48" data-name="Trazado 48" d="M672.253,469.1v97.087H720.5V469.1Zm38.594,87.439H681.9V478.747h28.945Z" transform="translate(-332.194 -305.391)" fill="#31e0dc"/>
    <path id="Trazado_49" data-name="Trazado 49" d="M308.33,336.541V249.7h-9.649v96.484h48.242v-9.648Z" transform="translate(-102.143 -85.394)" fill="#31e0dc"/>
    <path id="Trazado_50" data-name="Trazado 50" d="M240.618,258.437v-9.649H192.376v97.088h48.242v-9.649H202.025V301.855h38.594v-9.649H202.025v-33.77Z" transform="translate(-65.789 -85.081)" fill="#3f3d56"/>
    <path id="Trazado_51" data-name="Trazado 51" d="M814.3,258.437v-9.649H766.058v97.088H814.3v-9.649H775.707V301.855H814.3v-9.649H775.707v-33.77Z" transform="translate(-261.977 -85.081)" fill="#31e0dc"/>
    <path id="Trazado_52" data-name="Trazado 52" d="M111.079,249.548V329.29l-25.44-25.439-.058.059-.054-.054L59.521,329.863V249.247H49.872v96.484h9.649v-2.223l26.065-26.066,25.493,25.494v3.1h9.649V249.548Z" transform="translate(-17.055 -85.238)" fill="#3f3d56"/>
    <path id="Trazado_53" data-name="Trazado 53" d="M685.678,249.548v2.223l-26.065,26.066-25.494-25.493v-3.1H624.47v96.484h9.649V265.988l25.44,25.44.059-.059.053.053,26.008-26.007v80.617h9.648V249.548Z" transform="translate(-213.556 -85.238)" fill="#3f3d56"/>
    <circle id="Elipse_9" data-name="Elipse 9" cx="5.922" cy="5.922" r="5.922" transform="translate(214.564 93.031)" fill="#31e0dc"/>
    <circle id="Elipse_10" data-name="Elipse 10" cx="5.922" cy="5.922" r="5.922" transform="translate(68.484 158.833)" fill="#31e0dc"/>
    <circle id="Elipse_11" data-name="Elipse 11" cx="5.922" cy="5.922" r="5.922" transform="translate(185.612 290.437)" fill="#31e0dc"/>
    <circle id="Elipse_12" data-name="Elipse 12" cx="5.922" cy="5.922" r="5.922" transform="translate(334.324 110.797)" fill="#31e0dc"/>
    <circle id="Elipse_13" data-name="Elipse 13" cx="5.922" cy="5.922" r="5.922" transform="translate(508.699 285.173)" fill="#31e0dc"/>
    <circle id="Elipse_14" data-name="Elipse 14" cx="5.922" cy="5.922" r="5.922" transform="translate(514.621 129.88)" fill="#31e0dc"/>
    <circle id="Elipse_15" data-name="Elipse 15" cx="5.922" cy="5.922" r="5.922" transform="translate(439.607 236.479)" fill="#31e0dc"/>
  </g>
</svg>
