<svg xmlns="http://www.w3.org/2000/svg" width="582.202" height="348.049" viewBox="0 0 582.202 348.049">
  <g id="Grupo_6" data-name="Grupo 6" transform="translate(0 0)">
    <path id="Trazado_54" data-name="Trazado 54" d="M825.663,649.1c-7.454-6.3-11.981-16.248-10.794-25.934s8.541-18.59,18.081-20.647,20.413,3.637,23.311,12.955c1.595-17.966,3.432-36.684,12.984-51.983,8.649-13.853,23.629-23.766,39.863-25.539s33.328,4.924,43.453,17.738,12.6,31.443,5.513,46.154c-5.224,10.837-14.848,18.9-24.932,25.464a160.91,160.91,0,0,1-110.052,24.076Z" transform="translate(-379.916 -304.965)" fill="#f2f2f2"/>
    <path id="Trazado_55" data-name="Trazado 55" d="M958.1,545.827a265.508,265.508,0,0,0-78.014,105.49c-.744,1.823,2.217,2.617,2.953.814A262.556,262.556,0,0,1,960.27,547.992c1.529-1.245-.649-3.4-2.165-2.165Z" transform="translate(-401.514 -307.54)" fill="#fff"/>
    <path id="Trazado_56" data-name="Trazado 56" d="M352.42,625.975c10.238-8.651,16.456-22.317,14.826-35.62S355.514,564.82,342.412,562s-28.038,5-32.017,17.794c-2.19-24.676-4.714-50.385-17.833-71.4-11.879-19.027-32.454-32.642-54.752-35.078s-45.776,6.764-59.683,24.364-17.312,43.186-7.572,63.393c7.175,14.885,20.394,25.963,34.244,34.975a221.009,221.009,0,0,0,151.157,33.068" transform="translate(-165 -283.546)" fill="#f2f2f2"/>
    <path id="Trazado_57" data-name="Trazado 57" d="M215.743,484.122a361.6,361.6,0,0,1,50.393,50.04,366.77,366.77,0,0,1,39.741,58.816A365.281,365.281,0,0,1,322.9,629.013c1.022,2.5-3.045,3.595-4.056,1.118a358.928,358.928,0,0,0-32.8-62.053,361.188,361.188,0,0,0-43.986-54.338A360.338,360.338,0,0,0,212.769,487.1c-2.1-1.71.892-4.67,2.974-2.974Z" transform="translate(-180.566 -287.082)" fill="#fff"/>
    <path id="Trazado_58" data-name="Trazado 58" d="M668.758,537.245H424.5V286.63a96.809,96.809,0,0,1,96.7-96.7h50.859a96.809,96.809,0,0,1,96.7,96.7Z" transform="translate(-250.843 -189.931)" fill="#f2f2f2"/>
    <path id="Trazado_59" data-name="Trazado 59" d="M617.9,537.246H424.5V286.632a95.951,95.951,0,0,1,18.467-56.845c.444-.605.887-1.2,1.344-1.794a96.677,96.677,0,0,1,20.581-19.976c.441-.321.885-.637,1.334-.952a96.47,96.47,0,0,1,21.061-11.014c.442-.168.893-.336,1.343-.5a96.378,96.378,0,0,1,20.818-4.909c.44-.06.892-.107,1.344-.154a97.9,97.9,0,0,1,20.816,0c.451.047.9.094,1.348.155a96.359,96.359,0,0,1,20.812,4.909c.45.161.9.329,1.344.5A96.231,96.231,0,0,1,575.928,206.9c.449.309.9.624,1.343.94a97.7,97.7,0,0,1,12.3,10.415,96.57,96.57,0,0,1,8.515,9.737c.455.589.9,1.187,1.342,1.791A95.951,95.951,0,0,1,617.9,286.632Z" transform="translate(-250.843 -189.932)" fill="#ccc"/>
    <circle id="Elipse_16" data-name="Elipse 16" cx="10.707" cy="10.707" r="10.707" transform="translate(340.622 213.809)" fill="#31e0dc"/>
    <path id="Trazado_60" data-name="Trazado 60" d="M588.614,492.14h-8.2l-3.9-31.645h12.109Z" transform="translate(-190.709 -152.332)" fill="#ffb8b8"/>
    <path id="Trazado_61" data-name="Trazado 61" d="M568.657,504.28H584.48v9.962H558.7a9.962,9.962,0,0,1,9.962-9.962Z" transform="translate(-184.817 -166.816)" fill="#2f2e41"/>
    <path id="Trazado_62" data-name="Trazado 62" d="M649.614,492.14h-8.2l-3.9-31.645h12.109Z" transform="translate(-210.888 -152.332)" fill="#ffb8b8"/>
    <path id="Trazado_63" data-name="Trazado 63" d="M629.657,504.28H645.48v9.962H619.7a9.962,9.962,0,0,1,9.962-9.962Z" transform="translate(-204.996 -166.816)" fill="#2f2e41"/>
    <path id="Trazado_64" data-name="Trazado 64" d="M697.485,485.361a7.189,7.189,0,0,1,3.018-10.6l27.889-76.869,13.723,7.49-31.844,73.459a7.228,7.228,0,0,1-12.788,6.523Z" transform="translate(-340.736 -258.724)" fill="#ffb8b8"/>
    <path id="Trazado_65" data-name="Trazado 65" d="M809.108,504.624a7.189,7.189,0,0,1-1.936-10.852l-8.639-81.314,15.618.714,3.59,79.983a7.228,7.228,0,0,1-8.632,11.47Z" transform="translate(-374.574 -263.543)" fill="#ffb8b8"/>
    <circle id="Elipse_17" data-name="Elipse 17" cx="16.436" cy="16.436" r="16.436" transform="translate(393.184 92.056)" fill="#ffb8b8"/>
    <path id="Trazado_66" data-name="Trazado 66" d="M789.685,477.271H740.133l.06-.386c.089-.576,8.831-57.845,2.384-76.58a7.905,7.905,0,0,1,4.062-9.759h0c9.216-4.34,26.907-9.684,41.838,3.285a18.9,18.9,0,0,1,6.33,15.657Z" transform="translate(-355.255 -254.683)" fill="#31e0dc"/>
    <path id="Trazado_67" data-name="Trazado 67" d="M743.326,430.22l-22.308-4.526,10.457-24.78a9.367,9.367,0,1,1,18.139,4.683Z" transform="translate(-348.932 -257.399)" fill="#31e0dc"/>
    <path id="Trazado_68" data-name="Trazado 68" d="M796.3,439.481l-1.341-30.744c-1.017-5.779,2.291-11.243,7.38-12.136s10.059,3.119,11.081,8.94l5.041,28.727Z" transform="translate(-373.329 -258.257)" fill="#31e0dc"/>
    <path id="Trazado_69" data-name="Trazado 69" d="M786.717,517.049c7.973,30.366,8.843,68.974,6.692,111.087L782.7,626.8l-19.407-80.3-10.707,81.642-12.046-.669c-3.6-44.187-7.1-82.121-1.338-107.072Z" transform="translate(-353.935 -298.142)" fill="#2f2e41"/>
    <path id="Trazado_70" data-name="Trazado 70" d="M778.181,352.887c-3.066,3.266-8.761,1.513-9.16-2.949a5.384,5.384,0,0,1,.007-1.041c.206-1.977,1.348-3.771,1.075-5.858a3.071,3.071,0,0,0-.562-1.438c-2.443-3.272-8.179,1.463-10.485-1.5-1.414-1.816.248-4.676-.837-6.706-1.432-2.679-5.674-1.358-8.334-2.825-2.96-1.633-2.783-6.174-.834-8.936,2.376-3.368,6.542-5.166,10.656-5.425a28.583,28.583,0,0,1,12.04,2.35c4.364,1.7,8.691,4.051,11.377,7.888,3.266,4.666,3.58,10.94,1.947,16.4C784.076,346.165,780.685,350.219,778.181,352.887Z" transform="translate(-357.731 -231.692)" fill="#2f2e41"/>
    <path id="Trazado_71" data-name="Trazado 71" d="M760.357,708.786H266.292a.8.8,0,0,1,0-1.594H760.357a.8.8,0,0,1,0,1.594Z" transform="translate(-198.244 -361.042)" fill="#3f3d56"/>
    <path id="Trazado_72" data-name="Trazado 72" d="M588.846,500.2h-87a4.327,4.327,0,0,1-4.35-4.293V301.724a4.327,4.327,0,0,1,4.35-4.293h87a4.327,4.327,0,0,1,4.35,4.293V495.9A4.327,4.327,0,0,1,588.846,500.2Z" transform="translate(-274.992 -225.492)" fill="#fff"/>
    <rect id="Rectángulo_15" data-name="Rectángulo 15" width="95.695" height="1.338" transform="translate(222.508 134.77)" fill="#ccc"/>
    <rect id="Rectángulo_16" data-name="Rectángulo 16" width="95.695" height="1.338" transform="translate(222.843 211.132)" fill="#ccc"/>
    <rect id="Rectángulo_17" data-name="Rectángulo 17" width="1.338" height="203.436" transform="translate(252.622 71.939)" fill="#ccc"/>
    <rect id="Rectángulo_18" data-name="Rectángulo 18" width="1.338" height="203.436" transform="translate(286.082 71.939)" fill="#ccc"/>
  </g>
</svg>
